<svg xmlns="http://www.w3.org/2000/svg" width="22" height="19" viewBox="0 0 22 19" fill="none">
<path d="M10.6328 3C9.78347 3 9.08855 3.69492 9.08855 4.54428H7.54428C6.69492 4.54428 6 5.2392 6 6.08855H16.8099C16.8099 5.2392 16.115 4.54428 15.2657 4.54428H13.7214C13.7214 3.69492 13.0265 3 12.1771 3H10.6328ZM7.54428 7.63283V15.0608C7.54428 15.2307 7.66782 15.3542 7.83769 15.3542H14.9877C15.1576 15.3542 15.2811 15.2307 15.2811 15.0608V7.63283H13.7368V13.0378C13.7368 13.4702 13.3971 13.8099 12.9647 13.8099C12.5323 13.8099 12.1925 13.4702 12.1925 13.0378V7.63283H10.6483V13.0378C10.6483 13.4702 10.3085 13.8099 9.87613 13.8099C9.44373 13.8099 9.10399 13.4702 9.10399 13.0378V7.63283H7.55972H7.54428Z" fill="#f0ebe3"/>
</svg>